{"title":"The Internship 2013 WEBRip 480p x264 AAC - VYTO [P2PDL]","uid":8987363,"size":427486502,"categoryP":"video","categoryS":"movies","magnet":"?xt=urn:btih:a79b874f665484b617b500c5feaf39ab5c377e2c&amp;dn=The+Internship+2013+WEBRip+480p+x264+AAC+-+VYTO+%5BP2PDL%5D&amp;tr=udp%3A%2F%2Ftracker.openbittorrent.com%3A80&amp;tr=udp%3A%2F%2Fopen.demonii.com%3A1337&amp;tr=udp%3A%2F%2Ftracker.coppersurfer.tk%3A6969&amp;tr=udp%3A%2F%2Fexodus.desync.com%3A6969","seeders":0,"leechers":1,"uploader":"ValidusVyto","files":-1,"time":1380703146,"description":"_______ Visit us at our Semi Public Bittorrent Community ________\n  &lt;a href=&quot;\nhttp://p2pdl.com&quot; rel=&quot;nofollow&quot; target=&quot;_NEW&quot;&gt;\nhttp://p2pdl.com&lt;/a&gt;  _____________________________ &lt;a href=&quot; http://p2pdl.com&quot; rel=&quot;nofollow&quot; target=&quot;_NEW&quot;&gt; http://p2pdl.com&lt;/a&gt;\n\n\n\nThe Internship 2013 WEBRip 480p x264 AAC - VYTO\n\n\nGenre: Comedy\nPlot: Two salesmen whose careers have been torpedoed by the digital age find their way\ninto a coveted internship at Google, where they must compete with a group of young, tech-\nsavvy geniuses for a shot at employment. \t\t\t\t\t\t\t\t\t\t\t\t\t\t\t\nDirector: Shawn Levy\nStars: Vince Vaughn, Owen Wilson, Rose Byrne.\nRated: PG-13 for sexuality, some crude humor, partying and language.\n\nIMDb: &lt;a href=&quot;\nhttp://www.imdb.com/title/tt2234155/&quot; rel=&quot;nofollow&quot; target=&quot;_NEW&quot;&gt;\nhttp://www.imdb.com/title/tt2234155/&lt;/a&gt;\n\n\nFormat                         : MPEG-4\nFile size                      : 402 MiB\nDuration                       : 2h 5mn\nOverall bit rate               : 449 Kbps\n\nVideo\nFormat                         : AVC\nBit rate                       : 406 Kbps\nWidth                          : 720 pixels\nHeight                         : 304 pixels\nDisplay aspect ratio           : 2.35:1\nFrame rate mode                : Constant\nFrame rate                     : 23.976 fps\nBit depth                      : 10 bits\nStream size                    : 364 MiB (90%)\nWriting library                : x264 core 138 r2358\n\nAudio\nFormat                         : AAC\nBit rate mode                  : Variable\nBit rate                       : 40.0 Kbps\nChannel(s)                     : 2 channels\nChannel positions              : Front: L R\nSampling rate                  : 48.0 KHz\nStream size                    : 35.8 MiB (9%)\nLanguage                       : English\n\nSubtitle                       : Yes (English)\n\nSource                         : UNRATED.1080p.WEB-DL.H264-PublicHD\n &lt;a href=&quot;\nhttp://ultraimg.com/images/nt3sK.png&quot; rel=&quot;nofollow&quot; target=&quot;_NEW&quot;&gt;\nhttp://ultraimg.com/images/nt3sK.png&lt;/a&gt; &lt;a href=&quot;\nhttp://ultraimg.com/images/6JC4.png&quot; rel=&quot;nofollow&quot; target=&quot;_NEW&quot;&gt;\nhttp://ultraimg.com/images/6JC4.png&lt;/a&gt; &lt;a href=&quot;\nhttp://ultraimg.com/images/58rb.png&quot; rel=&quot;nofollow&quot; target=&quot;_NEW&quot;&gt;\nhttp://ultraimg.com/images/58rb.png&lt;/a&gt; &lt;a href=&quot;\nhttp://ultraimg.com/images/p4MsS.png&quot; rel=&quot;nofollow&quot; target=&quot;_NEW&quot;&gt;\nhttp://ultraimg.com/images/p4MsS.png&lt;/a&gt; &lt;a href=&quot;\nhttp://ultraimg.com/images/sz4gX.png&quot; rel=&quot;nofollow&quot; target=&quot;_NEW&quot;&gt;\nhttp://ultraimg.com/images/sz4gX.png&lt;/a&gt; &lt;a href=&quot;\nhttp://ultraimg.com/images/fgmRe.png&quot; rel=&quot;nofollow&quot; target=&quot;_NEW&quot;&gt;\nhttp://ultraimg.com/images/fgmRe.png&lt;/a&gt; &lt;a href=&quot;\nhttp://ultraimg.com/images/4TXQq.png&quot; rel=&quot;nofollow&quot; target=&quot;_NEW&quot;&gt;\nhttp://ultraimg.com/images/4TXQq.png&lt;/a&gt; &lt;a href=&quot;\nhttp://ultraimg.com/images/nfTlq.png&quot; rel=&quot;nofollow&quot; target=&quot;_NEW&quot;&gt;\nhttp://ultraimg.com/images/nfTlq.png&lt;/a&gt;\n\n----------------------------------------------------------------------------------------------------\n\n\nEncoded using revolutionary 10bit encoding, which enables us to provide you more crispier \nand sharper images at small sizes, just make sure you follow our instructions without a fault.\nRecommend to you to use latest version of VLC player. Install K-Lite Codec Pack or shark007 codecs\nin case of any kind of problem in playback (For non-VLC Media Player users). Alternatively, install\nCore AVC codecs, the fastest decoder that there is coupled with Community Center Codec Pack and play\non Windows Media Player Classic. Check sample to be sure.\nEnjoy!\n\nEncoder Notes:Looking For Early Access To Anything You Can Provide DVDScr, R5, DVDR, BluRay, Direct\nAudio, Music Releases and Seedboxes. We require dedicated servers, so as to do more \nand fast releases of movies.\nIf You Got anything to offer please contact us at &quot;&lt;a class=&quot;__cf_email__&quot; href=&quot;/cdn-cgi/l/email-protection&quot; data-cfemail=&quot;55252732153d20263d7b363a38&quot;&gt;[email&amp;#160;protected]&lt;/a&gt;&lt;script cf-hash='f9e31' type=&quot;text/javascript&quot;&gt;\n/* &lt;![CDATA[ */!function(){try{var t=&quot;currentScript&quot;in document?document.currentScript:function(){for(var t=document.getElementsByTagName(&quot;script&quot;),e=t.length;e--;)if(t[e].getAttribute(&quot;cf-hash&quot;))return t[e]}();if(t&amp;&amp;t.previousSibling){var e,r,n,i,c=t.previousSibling,a=c.getAttribute(&quot;data-cfemail&quot;);if(a){for(e=&quot;&quot;,r=parseInt(a.substr(0,2),16),n=2;a.length-n;n+=2)i=parseInt(a.substr(n,2),16)^r,e+=String.fromCharCode(i);e=document.createTextNode(e),c.parentNode.replaceChild(e,c)}}}catch(u){}}();/* ]]&gt; */&lt;/script&gt;&quot;.\n\nFacebook Fan Page:  \nSearch P2PDL on FB and hit like!!!\n\nFor more of our team uploads visit @                                             &lt;a href=&quot; http://thepiratebay.se/user/vitamin_x&quot; rel=&quot;nofollow&quot; target=&quot;_NEW&quot;&gt; http://thepiratebay.se/user/vitamin_x&lt;/a&gt;\t","torrent":{"xt":"urn:btih:a79b874f665484b617b500c5feaf39ab5c377e2c","amp;dn":"The+Internship+2013+WEBRip+480p+x264+AAC+-+VYTO+%5BP2PDL%5D","amp;tr":["udp%3A%2F%2Ftracker.openbittorrent.com%3A80","udp%3A%2F%2Fopen.demonii.com%3A1337","udp%3A%2F%2Ftracker.coppersurfer.tk%3A6969","udp%3A%2F%2Fexodus.desync.com%3A6969"],"infoHash":"a79b874f665484b617b500c5feaf39ab5c377e2c","infoHashBuffer":{"type":"Buffer","data":[167,155,135,79,102,84,132,182,23,181,0,197,254,175,57,171,92,55,126,44]},"announce":[],"urlList":[]}}